<svg xmlns="http://www.w3.org/2000/svg" width="252.534" height="162.852" viewBox="0 0 252.534 162.852"><defs><style>.a{fill:#f2f2f2;}.b,.c{fill:none;stroke-miterlimit:10;}.b{stroke:#f2f2f2;}.c{stroke:#3f3d56;}.d{fill:#f1cca4;}.e{fill:#ffc1c7;}.f{opacity:0.1;}.g{fill:#3f3d56;}.h{fill:#2f2e41;}.i{fill:#feb665;}</style></defs><path class="a" d="M809.156,387.565q.251-.222.492-.455c1.887-1.833,5.27-5.644,6.873-7.469a1.209,1.209,0,0,0-.217-1.789l-3.114-2.174.188-.1-2.234-3.231c.247-4.937-10.262-18.37-12.892-20.379s6.171-17.876,6.171-17.876a7.562,7.562,0,0,0,3.249-2.784c.05.009.1.019.152.026l1.126-.1a2,2,0,0,0,1.812-1.838,35.928,35.928,0,0,0,.125-4,4.129,4.129,0,0,1,1.735-2.929c1.962-1.294,14.566-33.682,8.767-39.61,0,0-2.471-3.694-3.868-4.146a1.537,1.537,0,0,0-.609-1.568l-.4-1.268s-.54.238-1.344.612a23.256,23.256,0,0,1-1.682-2.9c.279-1.21,4.461-6.542.71-10.228-3.806-3.74-5.686-6.278-8.522-5.266s-9.5,2.521-9.3,4.9-.493,3.313.734,4.289,1.27.9,1.27.9h0a7.34,7.34,0,0,0,8.3,9.063,20.429,20.429,0,0,1,1.4,3.4,3.391,3.391,0,0,0-.338,2.173,56.361,56.361,0,0,0-3.479,5.881c-.832,1.6-2.37,5-4.056,8.624-2.961-.955-5.638-1.921-5.638-1.921s-.155.183-.4.483a17.064,17.064,0,0,0-2.537-.239l-7.148-7.2a.591.591,0,0,0-.783-.1l-6.282,2.977a.752.752,0,0,0-.015,1.088l6.224,6.607c-.488.524.343,1.165,1.686,1.79l1.635,1.736a.581.581,0,0,0,.89.023l.554-.584c1.011.333,2.013.628,2.823.855-.059.291-.017.5.172.6.343.168,2.162,1.18,4.644,2.445a18.9,18.9,0,0,1-2.441,3.864c-1.788,1.726-1.745,6.49-1.653,8.359a7.5,7.5,0,0,0-1.351,2.773c-3.152,4.695-8.757,13.548-9.625,18.353a26.829,26.829,0,0,0-4.65,12.58c-.576,7.145-7.862,23.7-8.324,23.932-.07.036-.059.183.027.4-2.407.833,3.85,11.466,5.124,11.107,1.107-.312,2.781-5.978,2.778-7.719.039-.01.076-.017.115-.027,0,0,1.531-4.135,2.687-4.726s7.091-18.929,7.065-21.831a4.835,4.835,0,0,1,1.035-2.138,8,8,0,0,0,3.167,4.655c8.409,5.615,14.135,23.1,15.183,23.436a.624.624,0,0,0,.187.02c.089,2.493.04,7.221-1.569,7.83a3.361,3.361,0,0,0-1.273.851" transform="translate(-599.01 -225.233)"/><path class="b" d="M1026.014,623.252a4.869,4.869,0,0,0-5.1.422c-2.184,1.664-2.517,4.919-1.7,7.539s2.54,4.845,3.886,7.238a18.769,18.769,0,0,1,2.672,10.567,11.518,11.518,0,0,1-5.445,9.125c-2.985,1.675-6.6,1.611-10.023,1.5" transform="translate(-780.108 -497.318)"/><ellipse class="a" cx="1.801" cy="3.708" rx="1.801" ry="3.708" transform="matrix(0.503, -0.864, 0.864, 0.503, 243.995, 127.158)"/><ellipse class="a" cx="1.801" cy="3.708" rx="1.801" ry="3.708" transform="matrix(0.503, -0.864, 0.864, 0.503, 240.584, 138.904)"/><ellipse class="a" cx="1.801" cy="3.708" rx="1.801" ry="3.708" transform="matrix(0.503, -0.864, 0.864, 0.503, 233.767, 137.136)"/><ellipse class="a" cx="1.801" cy="3.708" rx="1.801" ry="3.708" transform="matrix(0.503, -0.864, 0.864, 0.503, 237.906, 151.074)"/><ellipse class="a" cx="1.801" cy="3.708" rx="1.801" ry="3.708" transform="matrix(0.503, -0.864, 0.864, 0.503, 244.313, 154.808)"/><path class="c" d="M978.1,613.28a4.869,4.869,0,0,0-4.2,2.935c-1.049,2.537.3,5.517,2.33,7.367s4.635,2.907,7,4.3a18.768,18.768,0,0,1,7.629,7.785,11.517,11.517,0,0,1-.11,10.626c-1.736,2.95-4.893,4.715-7.9,6.344" transform="translate(-752.69 -490.278)"/><ellipse class="d" cx="3.708" cy="1.801" rx="3.708" ry="1.801" transform="translate(224.378 121.422)"/><ellipse class="d" cx="3.708" cy="1.801" rx="3.708" ry="1.801" transform="translate(228.344 134.287)"/><ellipse class="d" cx="3.708" cy="1.801" rx="3.708" ry="1.801" transform="translate(220.564 135.194)"/><ellipse class="d" cx="3.708" cy="1.801" rx="3.708" ry="1.801" transform="translate(231.158 145.152)"/><ellipse class="d" cx="3.708" cy="1.801" rx="3.708" ry="1.801" transform="translate(238.573 145.152)"/><line class="c" x2="104.752" transform="translate(141.237 162.332)"/><path class="e" d="M731.775,403.752s-11.651,1.841-10.219-.482,9.056-4.644,10.455-4.159S731.775,403.752,731.775,403.752Z" transform="translate(-564.683 -330.513)"/><path class="f" d="M731.775,403.752s-11.651,1.841-10.219-.482,9.056-4.644,10.455-4.159S731.775,403.752,731.775,403.752Z" transform="translate(-564.683 -330.513)"/><path class="d" d="M768.377,313.98s-7.526,2.019-4.039,8.444c0,0,5.691,11.2,3.3,11.932s-13.4.367-13.4.367-2.57,6.241-1.285,6.425,21.845,4.406,24.047.367,0-21.478,0-21.478S773.884,311.41,768.377,313.98Z" transform="translate(-587.923 -266.719)"/><path class="f" d="M768.377,313.98s-7.526,2.019-4.039,8.444c0,0,5.691,11.2,3.3,11.932-1.42.437,7.588,12.05,3.88,12.013-1.993-.02-17.281-11.646-17.281-11.646s-2.57,6.241-1.285,6.425,21.845,4.406,24.047.367,0-21.478,0-21.478S773.884,311.41,768.377,313.98Z" transform="translate(-587.923 -266.719)"/><path class="g" d="M898.412,677.359s3.3,7.893,1.469,9.362-1.469,4.222-.184,4.222,4.222-2.57,5.874-5.691c1.231-2.325,3.276-6.992,4.24-9.222a1.208,1.208,0,0,0-.757-1.635l-5.318-1.625Z" transform="translate(-696.664 -534.642)"/><path class="g" d="M721.311,728.364s-6.976,5.691-10.647,5.507-4.222,3.671,0,4.222,16.888.734,17.99,0,.734-8.444,0-8.628S721.311,728.364,721.311,728.364Z" transform="translate(-554.441 -576.101)"/><path class="h" d="M807.515,482.432s0,5.691-2.937,8.077c0,0-3.488,17.806-.367,18.908s17.255,10.647,18.54,15.42l3.121,2.386s-5.691,5.691-6.792,5.691-11.932-14.869-21.661-17.623c0,0-6.058-1.469-5.874-9.362s7.343-28.82,7.343-28.82h8.261Z" transform="translate(-616.964 -388.728)"/><path class="f" d="M807.515,482.432s0,5.691-2.937,8.077c0,0-3.488,17.806-.367,18.908s17.255,10.647,18.54,15.42l3.121,2.386s-5.691,5.691-6.792,5.691-11.932-14.869-21.661-17.623c0,0-6.058-1.469-5.874-9.362s7.343-28.82,7.343-28.82h8.261Z" transform="translate(-616.964 -388.728)"/><path class="h" d="M762.4,472.655S756.9,489.91,757.815,496.7a26.829,26.829,0,0,0-.551,13.4c1.652,6.976-.184,24.965-.551,25.333s4.039,4.222,8.811,1.1c0,0,.184-4.406,1.1-5.323s.918-20.193,0-22.946,9.913-22.763,9.913-22.763,5.874-5.324,3.671-8.077.183-8.261.183-8.261l-16.7,1.1Z" transform="translate(-590.944 -382.806)"/><circle class="e" cx="7.343" cy="7.343" r="7.343" transform="translate(161.547 33.126)"/><path class="e" d="M776.54,275.672s5.874,6.792,7.343,6.976-4.773,8.077-4.773,8.077-3.488-5.874-5.874-6.425S776.54,275.672,776.54,275.672Z" transform="translate(-602.877 -238.507)"/><path class="g" d="M799.066,298.617l-.918-1.285s-6.325,5.638-6.558,7.133a3.238,3.238,0,0,0,.5,2.413l3.671-1.652,1.836-3.671Z" transform="translate(-616.96 -254.66)"/><path class="g" d="M775.56,480.364s-1.469,4.406-.367,4.222,1.1-2.57,2.386-2.57S779.6,480,779.6,480Z" transform="translate(-604.468 -390.882)"/><path class="g" d="M814.66,482.885s4.222,9.178,9.546,8.261l1.039-.445a2,2,0,0,0,1.159-2.307c-.507-2.114-1.44-5.509-2.2-5.509Z" transform="translate(-634.206 -393.036)"/><path class="h" d="M729.8,253.555a2.234,2.234,0,0,1,3.1-1.379c2.386.918,4.406,2.937,4.956,1.469s1.96-2.82,2.908-1.685,5.261,3.245,5.078,2.144,2.295-7.618-2.478-10-7.343-4.222-9.729-2.386-8.261,5.324-7.343,7.526.551,3.3,2.019,3.855S729.8,253.555,729.8,253.555Z" transform="translate(-568.235 -212.625)"/><path class="i" d="M784.736,302.793a1.444,1.444,0,0,0-1.836-1.285c-1.652.367-6.058,7.71-6.058,7.71a51.928,51.928,0,0,0-1.652,7.159c-.734,4.406-2.2,20.56-3.671,23.313s1.285,9.178,1.285,9.178,1.652-1.836,6.976-.734,12.3,2.2,12.85,1.652-.551-2.019.918-3.855,3.488-36.53-3.855-40.385C789.693,305.546,786.2,302.793,784.736,302.793Z" transform="translate(-601.712 -257.735)"/><path class="f" d="M774.61,326.976s-7.526,2.019-4.039,8.444c0,0,5.691,11.2,3.3,11.932s-13.4.367-13.4.367-1.193,3.947.092,4.13,20.468,6.7,22.671,2.662,0-21.478,0-21.478S780.117,324.406,774.61,326.976Z" transform="translate(-593.422 -276.41)"/><path class="h" d="M690,388.865l12.2,6.7a.581.581,0,0,0,.854-.252l2.989-6.247a.78.78,0,0,0-.4-.936l-10.13-5.221a.591.591,0,0,0-.775.148l-5.06,4.767a.751.751,0,0,0,.32,1.04Z" transform="translate(-540.931 -318.416)"/><path class="g" d="M589.51,259.419l11.438,6.538,3.044-5.486-9.812-5.336Z" transform="translate(-439.626 -189.893)"/><ellipse class="a" cx="0.144" cy="0.168" rx="0.144" ry="0.168" transform="matrix(0.768, -0.641, 0.641, 0.768, 159.374, 67.506)"/><ellipse class="a" cx="0.096" cy="0.112" rx="0.096" ry="0.112" transform="matrix(0.768, -0.641, 0.641, 0.768, 155.2, 73.131)"/><path class="e" d="M732.585,414.625s-11.767.825-10.139-1.366,9.425-3.842,10.776-3.238S732.585,414.625,732.585,414.625Z" transform="translate(-565.322 -338.604)"/><path class="d" d="M771.265,322.644s-7.526,2.019-4.039,8.444c0,0,5.691,11.2,3.3,11.932s-13.4.367-13.4.367-2.57,6.241-1.285,6.425,21.845,4.406,24.047.367,0-21.478,0-21.478S776.772,320.074,771.265,322.644Z" transform="translate(-590.076 -273.18)"/><rect class="a" width="66.113" height="32.842" rx="13.524" transform="translate(67.264 41.391)"/><circle class="i" cx="4.322" cy="4.322" r="4.322" transform="translate(0 2.026)"/><circle class="c" cx="4.322" cy="4.322" r="4.322" transform="translate(1.271 0.5)"/><circle class="a" cx="4.322" cy="4.322" r="4.322" transform="translate(52.63 56.435)"/><circle class="c" cx="4.322" cy="4.322" r="4.322" transform="translate(53.901 54.91)"/><circle class="i" cx="4.322" cy="4.322" r="4.322" transform="translate(86.192 23.637)"/><circle class="c" cx="4.322" cy="4.322" r="4.322" transform="translate(87.463 22.111)"/><rect class="i" width="66.113" height="32.842" rx="13.524" transform="translate(9.845 16.384)"/><rect class="c" width="66.113" height="32.842" rx="13.524" transform="translate(13.708 13.594)"/><rect class="c" width="66.113" height="32.842" rx="13.524" transform="translate(71.128 38.601)"/></svg>