<svg xmlns="http://www.w3.org/2000/svg" width="267.939" height="149.21" viewBox="0 0 267.939 149.21"><defs><style>.a{fill:#ffd063;}.a,.b,.h,.l,.o,.p{opacity:0.1;}.b,.k{fill:#ff6f61;}.c{fill:#2f2e41;}.d,.i{opacity:0.2;}.e,.o{fill:#feb665;}.f{fill:#656478;}.g{fill:#fbbebe;}.j{fill:#3f3d56;}.l{fill:#6c63ff;}.m{fill:#434175;}.n{fill:#cf625e;}</style></defs><g transform="translate(0)"><path class="a" d="M295.938,244.382a42.289,42.289,0,0,1-6.118,21.988c0,8.108-3.78,15.458-9.912,20.814a33.9,33.9,0,0,1-4.937,3.579c-.07.044-.143.087-.216.129l-.4.234-.124.073h0c-.56.316-1.131.621-1.714.906a38.8,38.8,0,0,1-17.276,3.982H78.864q-2.108,0-4.178-.169a49.455,49.455,0,0,1-14.3-3.312q-1.34-.529-2.628-1.138-.614-.288-1.216-.593c-.251-.126-.5-.258-.749-.389a44.617,44.617,0,0,1-4.37-2.656,43.065,43.065,0,0,1-3.7-2.839c-7.97-6.839-12.9-16.3-12.9-26.747A42.275,42.275,0,0,1,28,235.133c0-23.22,18.559-42.043,41.456-42.043.7,0,1.405.021,2.108.059a2.144,2.144,0,0,1,.3.014,71.426,71.426,0,0,1,15.224-17.945c16.919-14.5,41.648-23.637,69.193-23.637,23.145,0,44.3,6.453,60.506,17.114a40.8,40.8,0,0,1,20.131-5.281c22.892,0,41.456,18.824,41.456,42.043a43.321,43.321,0,0,1-.234,4.4,42.158,42.158,0,0,1,17.8,34.528Z" transform="translate(-28 -146.877)"/><path class="b" d="M435.851,315.9v-2.513a9.146,9.146,0,1,0-6.881,0V315.9a12.882,12.882,0,0,0-5.982,3.637,12.9,12.9,0,0,0-7.279-5.274V311.75a9.146,9.146,0,1,0-6.881,0v2.513a12.882,12.882,0,0,0-5.436,3.082,12.9,12.9,0,0,0-6.888-4.722V310.11a9.146,9.146,0,1,0-6.881,0v2.513a12.882,12.882,0,0,0-6.09,3.761,12.9,12.9,0,0,0-8.565-7.743v-2.513a9.146,9.146,0,1,0-6.881,0v2.513a12.882,12.882,0,0,0-9.368,11.188,12.792,12.792,0,0,0-3.881-1.82V315.5a9.146,9.146,0,1,0-6.881,0v2.513a12.924,12.924,0,0,0-8.118,6.722,12.784,12.784,0,0,0-3.513-1.569V320.65a9.146,9.146,0,1,0-6.881,0v2.513a12.715,12.715,0,0,0-3.328,1.457,12.914,12.914,0,0,0-8.059-6.609V315.5a9.146,9.146,0,1,0-6.881,0v2.513a12.905,12.905,0,0,0-8.4,7.345,12.882,12.882,0,0,0-4.392-2.192V320.65a9.146,9.146,0,1,0-6.881,0v2.513a12.882,12.882,0,0,0-9.441,12.413v58.085h25.749v-5.153h12.179v5.153h25.763v-5.153h18.5V379.14h15.926v3.982h19.205v1.639h20.142V386.4h25.763V328.315a12.882,12.882,0,0,0-9.441-12.413Z" transform="translate(-222.556 -251.735)"/><path class="c" d="M360.382,169H381.8a39.882,39.882,0,0,1,39.884,39.884v54.035H320.5V208.882A39.882,39.882,0,0,1,360.382,169Z" transform="translate(-245.435 -129.418)"/><path class="d" d="M370.382,178.28h16.73A39.882,39.882,0,0,1,427,218.164V267.85H330.5V218.162a39.882,39.882,0,0,1,39.882-39.882Z" transform="translate(-253.093 -136.525)"/><path class="c" d="M349.1,675.055v4.089a38.8,38.8,0,0,1-17.275,3.982H155.443q-2.108,0-4.178-.169a49.455,49.455,0,0,1-14.3-3.312q-1.34-.529-2.628-1.138-.614-.288-1.216-.593c-.251-.126-.5-.258-.749-.389a44.617,44.617,0,0,1-4.37-2.651V663.769A6.769,6.769,0,0,1,134.769,657H329.453a6.769,6.769,0,0,1,4.45,1.679l12.882,11.289A6.762,6.762,0,0,1,349.1,675.055Z" transform="translate(-104.579 -533.922)"/><path class="e" d="M334.517,350.624q-7.661.506-15.264,1.639a14.457,14.457,0,0,0-4.216,1.091,12.365,12.365,0,0,0-2.8,2,36.86,36.86,0,0,0-8.9,12.069c-1.3,2.846-2.241,5.855-3.471,8.724-4.377,10.247-12.317,18.627-16.938,28.766a25.159,25.159,0,0,0-2.178,6.872c-.347,2.469.047,5.349,2.075,6.792a8.388,8.388,0,0,0,3.19,1.171,384.461,384.461,0,0,0,42.526,6.944,7.3,7.3,0,0,1-1.862-5.951,21.5,21.5,0,0,1,1.874-6.148q-12.135-2.677-24.208-5.621c-1.2-.293-2.644-.843-2.792-2.07a3.06,3.06,0,0,1,.539-1.778A95.362,95.362,0,0,1,314.367,387.8c0,6.572-.326,13.994-.326,20.568H389.95a58.089,58.089,0,0,1-1.6-11.441c-.354-12.591,3.886-25.086,2.785-37.652a7.631,7.631,0,0,0-.869-3.347c-1.047-1.714-3.136-2.424-5.057-3.01-7.364-2.239-14.882-4.5-22.578-4.328-2.288.054-4.567.321-6.841.59C348.857,350,341.48,350.163,334.517,350.624Z" transform="translate(-221.47 -297.736)"/><path class="f" d="M358.8,671.534l5.527,17.69a.553.553,0,0,0,.527.386h23.719L382.951,669l-23.669,1.82a.553.553,0,0,0-.482.714Z" transform="translate(-281.303 -543.111)"/><path class="g" d="M477.017,360a10.255,10.255,0,0,1-3.4,1.009l-7.558,1.312a8.406,8.406,0,0,0-4.153,1.518c-2.319,1.984-1.818,5.635-1.115,8.6l1.405,5.958c1.059,4.478,2.141,9.01,4.312,13.067,3.792,7.08,10.748,12.179,18.4,14.636a20.573,20.573,0,0,0,8.474,1.136c5.588-.614,10.369-4.6,13.315-9.387s4.349-10.345,5.635-15.821c1.234-5.242,2.408-10.558,2.328-15.945a9.26,9.26,0,0,0-1.087-4.85c-1.96-3.122-6.4-3.356-10.045-2.78a3.726,3.726,0,0,1-1.7.019c-1.64-.511-1.677-2.761-2.38-4.324-1.328-2.946-5.267-3.469-8.488-3.2s-8.235.611-11.041,2.436C477.216,355.13,480.181,358.175,477.017,360Z" transform="translate(-358.975 -299.505)"/><path class="h" d="M477.017,360a10.255,10.255,0,0,1-3.4,1.009l-7.558,1.312a8.406,8.406,0,0,0-4.153,1.518c-2.319,1.984-1.818,5.635-1.115,8.6l1.405,5.958c1.059,4.478,2.141,9.01,4.312,13.067,3.792,7.08,10.748,12.179,18.4,14.636a20.573,20.573,0,0,0,8.474,1.136c5.588-.614,10.369-4.6,13.315-9.387s4.349-10.345,5.635-15.821c1.234-5.242,2.408-10.558,2.328-15.945a9.26,9.26,0,0,0-1.087-4.85c-1.96-3.122-6.4-3.356-10.045-2.78a3.726,3.726,0,0,1-1.7.019c-1.64-.511-1.677-2.761-2.38-4.324-1.328-2.946-5.267-3.469-8.488-3.2s-8.235.611-11.041,2.436C477.216,355.13,480.181,358.175,477.017,360Z" transform="translate(-358.975 -299.505)"/><path class="e" d="M457.574,395.564a78.094,78.094,0,0,0,3.382,7.211,35.635,35.635,0,0,0,3.907,4.975c3.628,4.1,7.3,8.24,11.793,11.364a52.213,52.213,0,0,1,12.968-25.529c1.935-2.077,4.356-4.124,7.2-4.047a9.537,9.537,0,0,1,4.853,1.895,17.363,17.363,0,0,1,4.368,3.9,15.757,15.757,0,0,1,2.811,8.741,46.383,46.383,0,0,1-.815,9.268L505.576,429.2a3.615,3.615,0,0,1-1.091,2.483,3.436,3.436,0,0,1-1.405.506c-8.94,1.74-18.154.611-27.262.522-10.071-.1-20.421,1.052-29.96-2.152a2.914,2.914,0,0,1-1.354-.764,2.824,2.824,0,0,1-.468-1.009c-2.223-7.195-.44-14.926.878-22.339A175.29,175.29,0,0,0,447.14,388.7c.04-.536,5.933.649,6.591,1.028C455.522,390.791,456.712,393.756,457.574,395.564Z" transform="translate(-345.787 -328.357)"/><g class="i" transform="translate(25.287 62.71)"><path class="j" d="M179.776,657.3a2.791,2.791,0,0,1-.023.316q-1.34-.529-2.628-1.138a2.132,2.132,0,0,1-1.216-.593c-.251-.126-.5-.258-.749-.389a3.212,3.212,0,0,1,.19-.342,2.179,2.179,0,0,1,3.965.122A3.951,3.951,0,0,1,179.776,657.3Z" transform="translate(-165.981 -594.284)"/><path class="j" d="M179.015,640.178a3.953,3.953,0,0,1-.588,1.986,2.358,2.358,0,0,1-2.024,1.213l-.166-.012a2.131,2.131,0,0,1-1.216-.593,2.935,2.935,0,0,1-.56-.731,4.11,4.11,0,0,1,.126-4.01,2.179,2.179,0,0,1,3.965.122A3.951,3.951,0,0,1,179.015,640.178Z" transform="translate(-165.093 -581.174)"/><ellipse class="j" cx="3.281" cy="2.506" rx="3.281" ry="2.506" transform="matrix(0.032, -1, 1, 0.032, 8.935, 58.122)"/><ellipse class="j" cx="3.281" cy="2.506" rx="3.281" ry="2.506" transform="matrix(0.032, -1, 1, 0.032, 9.063, 54.112)"/><ellipse class="j" cx="3.281" cy="2.506" rx="3.281" ry="2.506" transform="matrix(0.032, -1, 1, 0.032, 9.188, 50.102)"/><path class="k" d="M139.258,418.406a11.633,11.633,0,0,1-.89-1.405l6.619-.874-7.134-.169a12.034,12.034,0,0,1,.073-9.518l9.4,5.256-8.607-6.755a12.01,12.01,0,1,1,19.4,14.053,11.972,11.972,0,0,1,1.3,2.232l-8.682,4.178,9.212-2.771a12.025,12.025,0,0,1-2.3,11.219,12.01,12.01,0,1,1-18.861-.6,12.01,12.01,0,0,1,.468-14.844Z" transform="translate(-135.972 -399.247)"/><path class="h" d="M160.451,514.983a11.959,11.959,0,0,1-2.811,7.343,12.01,12.01,0,1,1-18.854-.595C137.234,519.637,160.493,513.636,160.451,514.983Z" transform="translate(-135.968 -487.727)"/></g><circle class="l" cx="5.066" cy="5.066" r="5.066" transform="translate(10.865 28)"/><circle class="l" cx="5.066" cy="5.066" r="5.066" transform="translate(31.979 0)"/><path class="b" d="M8.49,0A8.49,8.49,0,1,1,0,8.49,8.49,8.49,0,0,1,8.49,0Z" transform="translate(26.838 15.812)"/><circle class="g" cx="19.674" cy="19.674" r="19.674" transform="translate(107.503 23.773)"/><path class="m" d="M452.143,147.809c-5.249.665-10.914,1.543-14.624,5.314a20.676,20.676,0,0,0-4.291,7.7c-1.55,4.333-2.705,8.9-2.342,13.5.323,4.113,1.846,8.319.614,12.259a33.565,33.565,0,0,1-2.544,5.085,26.931,26.931,0,0,0-2.633,10.162,17.66,17.66,0,0,0,.639,7.188c.845,2.436,2.494,4.509,3.539,6.865,1.546,3.48,1.7,7.4,1.82,11.2s.22,7.586.309,11.378c.056,2.384.061,4.937-1.258,6.926,4.869-1.951,9.806-3.942,13.973-7.127s7.539-7.778,8.078-13c.436-4.23-.993-8.4-2.225-12.469-3.045-10.071-5.012-20.807-2.8-31.092.8-3.7,2.74-7.837,6.467-8.518,2.274-.415,4.544.623,6.593,1.7,4.844,2.534,9.837,5.813,11.64,10.973,1.639,4.665.26,9.863-1.874,14.317s-5.038,8.551-6.7,13.207a24.763,24.763,0,0,0,2.4,21.8c4.23,6.293,12.046,10.165,19.561,9.148-.588-2.539-2.431-4.591-3.419-7-1.8-4.382-.586-9.422,1.347-13.746s4.569-8.354,5.778-12.945a38.729,38.729,0,0,0,.951-9.952c0-5.26-.26-10.523-.766-15.76a71.31,71.31,0,0,0-2.946-15.577A29.47,29.47,0,0,0,481.23,158.3c-3.106-3.3-7.148-5.537-11.118-7.729a25.362,25.362,0,0,0-7.467-3.12,40.453,40.453,0,0,0-6.474-.972A5.476,5.476,0,0,0,452.143,147.809Z" transform="translate(-332.958 -142.968)"/><rect class="f" width="14.252" height="33.197" rx="2.9" transform="translate(142.89 27.649) rotate(10.98)"/><rect class="j" width="14.252" height="33.197" rx="2.9" transform="translate(143.846 27.835) rotate(10.98)"/><ellipse class="e" cx="2.354" cy="0.972" rx="2.354" ry="0.972" transform="translate(148.056 38.374) rotate(-79.02)"/><path class="g" d="M641.679,314.48a6.171,6.171,0,0,0-4.237-3.785,25.461,25.461,0,0,0-6.977-1.721,1.313,1.313,0,0,0-1.094.3c-.525.616.307,1.454,1.026,1.827l5.719,2.963-5.272-.557c-.766-.082-1.857.126-1.8.895.037.5.59.778,1.068.937,3.384,1.171,7.3,2.089,9.148,5.153a23.675,23.675,0,0,0-7.41.075,3.135,3.135,0,0,0-1.782.9,1.309,1.309,0,0,0,.063,1.82,1.838,1.838,0,0,0,1.213.234c1.717-.082,3.478-.424,5.127.066s3.113,2.218,2.544,3.839a9.255,9.255,0,0,0,4.541-.63c1.49-.7,1.454-2.024,1.363-3.616C644.724,320.061,643.176,317.15,641.679,314.48Z" transform="translate(-488.27 -267.403)"/><path class="h" d="M651.822,411.346a263.552,263.552,0,0,0-5.387-27.384c-1.171-4.684-2.5-9.448-2.167-14.268,4.839.616,9.174,1.073,13.634-.9.073,2.532,1.909,4.684,2.576,7.132a31.377,31.377,0,0,1,.454,5.064,31.041,31.041,0,0,0,1.155,4.968,60.948,60.948,0,0,1,1.553,25C659.5,411.445,655.951,411.986,651.822,411.346Z" transform="translate(-499.891 -313.214)"/><path class="e" d="M648.822,411.346a263.548,263.548,0,0,0-5.387-27.384c-1.171-4.684-2.5-9.448-2.167-14.268,4.839.616,9.174,1.073,13.634-.9.073,2.532,1.909,4.684,2.576,7.132a31.391,31.391,0,0,1,.454,5.064,31.041,31.041,0,0,0,1.155,4.968,60.949,60.949,0,0,1,1.553,25C656.5,411.445,652.951,411.986,648.822,411.346Z" transform="translate(-497.593 -313.214)"/><path class="j" d="M384.621,548.362l2.293-56.883a3.48,3.48,0,0,1,3.513-3.34l90.528.867a3.48,3.48,0,0,1,3.431,3.785L479.6,547.285a3.48,3.48,0,0,1-3.408,3.176l-88.036,1.522a3.483,3.483,0,0,1-3.539-3.621Z" transform="translate(-301.094 -404.61)"/><ellipse class="n" cx="3.982" cy="4.684" rx="3.982" ry="4.684" transform="translate(130.105 104.693)"/><path class="j" d="M893.862,584.76l-.187,1.607-3.045,25.965c-7.937,5.534-14.111.215-14.165,0l-3.836-26.087-.218-1.485Z" transform="translate(-674.639 -478.601)"/><path class="h" d="M893.862,584.76l-.187,1.607c-8.942,5.2-18.482,1.152-21.046-.122l-.218-1.485Z" transform="translate(-674.639 -478.601)"/><path class="e" d="M870.5,578.74v2.342s11.828,6.876,22.484,0V578.74Z" transform="translate(-673.177 -473.991)"/><path class="k" d="M871.875,565.53s-.344,1.581-1.375,1.719v1.993h22.484v-1.787a1.662,1.662,0,0,1-1.171-1.925Z" transform="translate(-673.177 -463.875)"/><ellipse class="k" cx="10.141" cy="2.923" rx="10.141" ry="2.923" transform="translate(197.356 99.903)"/><ellipse class="o" cx="10.141" cy="2.923" rx="10.141" ry="2.923" transform="translate(199.356 98.903)"/><path class="b" d="M900.019,558.554c0,1.171-3.846,2.131-8.593,2.131h-.253a19.941,19.941,0,0,1-7.347-1.134c-.635-.3-1-.639-1-1,0-.595.984-1.134,2.576-1.52a26.578,26.578,0,0,1,6.026-.611C896.173,556.422,900.019,557.376,900.019,558.554Z" transform="translate(-681.619 -455.899)"/><path class="h" d="M894.427,562.661a19.94,19.94,0,0,1-7.347-1.134h0L888.654,559Z" transform="translate(-685.873 -458.874)"/><path class="h" d="M879.1,566.206c-.122-.026-.283.016-.307.138a.3.3,0,0,0,.047.176,2.5,2.5,0,0,0,1.12.958.666.666,0,0,0,.255.082.234.234,0,0,0,.234-.122.265.265,0,0,0-.016-.218.968.968,0,0,0-.29-.319C879.824,566.656,879.5,566.274,879.1,566.206Z" transform="translate(-679.524 -464.387)"/><circle class="k" cx="6.05" cy="6.05" r="6.05" transform="translate(202.79 114.755)"/><path class="j" d="M169.185,515.85h2.836a5.855,5.855,0,0,1,5.855,5.855v8.7H163.33v-8.7A5.855,5.855,0,0,1,169.185,515.85Z" transform="translate(-125.076 -395.032)"/><path class="h" d="M169.185,515.85h2.836a5.855,5.855,0,0,1,5.855,5.855v8.7H163.33v-8.7A5.855,5.855,0,0,1,169.185,515.85Z" transform="translate(-125.076 -395.032)"/><circle class="j" cx="1.164" cy="1.164" r="1.164" transform="translate(43.781 121.692)"/><circle class="j" cx="1.164" cy="1.164" r="1.164" transform="translate(43.781 120.237)"/><circle class="j" cx="1.164" cy="1.164" r="1.164" transform="translate(43.781 118.781)"/><circle class="j" cx="1.164" cy="1.164" r="1.164" transform="translate(43.781 117.326)"/><circle class="j" cx="1.164" cy="1.164" r="1.164" transform="translate(43.781 115.872)"/><circle class="j" cx="1.164" cy="1.164" r="1.164" transform="translate(43.781 114.417)"/><circle class="j" cx="1.164" cy="1.164" r="1.164" transform="translate(43.781 112.963)"/><circle class="j" cx="1.164" cy="1.164" r="1.164" transform="translate(45.528 113.544)"/><circle class="j" cx="1.164" cy="1.164" r="1.164" transform="translate(46.692 112.963)"/><circle class="j" cx="1.164" cy="1.164" r="1.164" transform="translate(47.856 112.38)"/><circle class="j" cx="1.164" cy="1.164" r="1.164" transform="translate(43.781 111.508)"/><circle class="j" cx="1.164" cy="1.164" r="1.164" transform="translate(43.781 110.054)"/><circle class="j" cx="1.164" cy="1.164" r="1.164" transform="translate(43.781 108.597)"/><circle class="j" cx="1.164" cy="1.164" r="1.164" transform="translate(43.781 107.143)"/><path class="n" d="M208.553,564.473c-.288.042-.578.073-.869.091a6.684,6.684,0,0,0,.752-.773,4.972,4.972,0,0,0-.7-1.365,2.393,2.393,0,0,1-.937.3c-.288.042-.578.073-.869.094a14.522,14.522,0,0,0,1.113-1.171,4.94,4.94,0,1,0,1.548,2.811Z" transform="translate(-158.783 -459.919)"/><path class="n" d="M241.954,600.736a2.268,2.268,0,0,1-.979.326c-.288.042-.578.075-.869.094a8.53,8.53,0,0,0,.862-.895,2.914,2.914,0,1,0,.986.468Z" transform="translate(-188.294 -490.398)"/><circle class="j" cx="1.164" cy="1.164" r="1.164" transform="translate(42.036 113.544)"/><circle class="j" cx="1.164" cy="1.164" r="1.164" transform="translate(40.872 112.963)"/><circle class="j" cx="1.164" cy="1.164" r="1.164" transform="translate(39.708 112.38)"/><path class="e" d="M178.8,600.736a2.258,2.258,0,0,0,.979.326c.288.042.579.075.869.094a8.293,8.293,0,0,1-.862-.895,2.914,2.914,0,1,1-.986.468Z" transform="translate(-142.568 -490.398)"/><path class="j" d="M169.185,519.58h2.836a5.855,5.855,0,0,1,5.855,5.855v7.7a.993.993,0,0,1-.993.993H164.323a.993.993,0,0,1-.993-.993v-7.7A5.855,5.855,0,0,1,169.185,519.58Z" transform="translate(-125.076 -397.888)"/><g class="p" transform="translate(40.069 100.516)"><path d="M239.655,579.27a4.416,4.416,0,0,1-.375.356,3.811,3.811,0,0,0,.4-.035A2.1,2.1,0,0,0,239.655,579.27Z" transform="translate(-229.865 -574.912)"/><path d="M231.82,570.16c.293-.019.581-.049.871-.091a2.811,2.811,0,0,0,.757-.206,4.986,4.986,0,0,0-.408-.672,1.762,1.762,0,0,1-.468.2A6.744,6.744,0,0,1,231.82,570.16Z" transform="translate(-224.152 -567.193)"/><path d="M199.593,566.13a4.937,4.937,0,0,1,7.612-4.16l.075-.08a4.942,4.942,0,1,0-6.516,7.432,4.919,4.919,0,0,1-1.171-3.192Z" transform="translate(-199.08 -560.665)"/></g><g class="p" transform="translate(49.02 109.764)"><path d="M249.22,603.577c.29-.019.581-.049.869-.091a2.273,2.273,0,0,0,.979-.328,2.911,2.911,0,0,1,1.171,2.061,2.663,2.663,0,0,0,.016-.307,2.9,2.9,0,0,0-1.171-2.342,2.267,2.267,0,0,1-.979.326l-.234.03A5.946,5.946,0,0,1,249.22,603.577Z" transform="translate(-246.428 -602.003)"/><path d="M240.209,600.731a2.383,2.383,0,0,1,.29.021c.152-.162.3-.335.454-.5a2.9,2.9,0,0,0-3.654,2.811,1.993,1.993,0,0,0,.014.29A2.909,2.909,0,0,1,240.209,600.731Z" transform="translate(-237.3 -600.15)"/></g><g class="p" transform="translate(35.045 109.764)"><path d="M180.665,603.577c-.29-.019-.581-.049-.869-.091a2.261,2.261,0,0,1-.979-.328,2.911,2.911,0,0,0-1.171,2.061,2.663,2.663,0,0,1-.016-.307,2.9,2.9,0,0,1,1.171-2.342,2.259,2.259,0,0,0,.979.326l.234.03A5.552,5.552,0,0,0,180.665,603.577Z" transform="translate(-177.63 -602.003)"/><path d="M187.655,600.731a2.421,2.421,0,0,0-.293.021c-.15-.162-.3-.335-.452-.5a2.9,2.9,0,0,1,3.654,2.811,1.991,1.991,0,0,1-.014.29A2.909,2.909,0,0,0,187.655,600.731Z" transform="translate(-184.736 -600.15)"/></g></g></svg>