<svg xmlns="http://www.w3.org/2000/svg" width="247.852" height="166.97" viewBox="0 0 247.852 166.97"><defs><style>.a,.e{fill:#6c63ff;}.a,.c,.d,.f{opacity:0.1;}.b{fill:#3f3d56;}.f,.j{fill:#ff6f61;}.g{fill:#ffd063;}.h{fill:#f2f2f2;}.i{fill:#fbbebe;}.k{fill:#3a3768;}.l{fill:#ffb663;}.m{fill:#e6e8ec;}</style></defs><g transform="translate(0 -6.618)"><path class="a" d="M268.028,126.4A58.437,58.437,0,0,0,197.81,118.5C220.316,126.554,245.148,126.85,268.028,126.4Z" transform="translate(-169.184 -103.65)"/><path class="a" d="M881.621,592.2l-24.577-42.568a.782.782,0,0,0-1.358,0L831.11,592.2a.782.782,0,0,0,.678,1.185h7.331a.786.786,0,0,1,.784.784v9.085a.784.784,0,0,0,.782.784h9.566a.784.784,0,0,0,.784-.784v-4.391a.782.782,0,0,1,.782-.782h9.094a.784.784,0,0,1,.784.782v4.391a.784.784,0,0,0,.784.784h9.563a.784.784,0,0,0,.784-.784v-9.094a.784.784,0,0,1,.784-.784h7.331a.784.784,0,0,0,.678-1.175Zm-34.273,4.711a.782.782,0,0,1-.555.237h-3.443a.784.784,0,0,1,0-1.569h3.45a.784.784,0,0,1,.554,1.339Zm22.577,0a.783.783,0,0,1-.554.237H865.93a.784.784,0,0,1,0-1.569h3.455a.784.784,0,0,1,.554,1.339Z" transform="translate(-652.337 -438.605)"/><path class="a" d="M251.673,593.788,227.1,551.219a.784.784,0,0,0-1.358,0L204.51,587.987a64.855,64.855,0,0,0,8.883,9.172h3.459a.784.784,0,1,1,0,1.569h-1.46a37.978,37.978,0,0,0,5.687,3.538v-1.813a.784.784,0,0,1,.784-.784h9.094a.784.784,0,0,1,.782.784v4.388a.763.763,0,0,0,.073.329.784.784,0,0,0,.711.455h9.566a.768.768,0,0,0,.623-.315.753.753,0,0,0,.159-.474V595.75a.784.784,0,0,1,.784-.784h7.331a.784.784,0,0,0,.685-1.178Zm-16.243,3.6a.782.782,0,0,1,.554-.237h3.45a.784.784,0,0,1,0,1.569h-3.452a.784.784,0,0,1-.554-1.339Zm-15.437-15.753a.784.784,0,0,1-.784-.784V574.9a.784.784,0,0,1,.784-.784h12.855a.784.784,0,0,1,.782.784v5.957a.784.784,0,0,1-.782.784Z" transform="translate(-174.296 -439.818)"/><path class="a" d="M505.053,357.408H474.64V350.83a1.573,1.573,0,0,0-1.573-1.573h-8.931V342.25a.99.99,0,0,0-.99-.99h-11.5a.99.99,0,0,0-.99.99v7h-10.5a1.573,1.573,0,0,0-1.573,1.573v6.578h-29a.32.32,0,0,0-.318.32V445.05a.32.32,0,0,0,.318.32h19.274a.32.32,0,0,0,.32-.32V433.3a.322.322,0,0,1,.32-.32h8.142a.322.322,0,0,1,.32.32V445.05a.32.32,0,0,0,.317.32h38.09a.322.322,0,0,0,.32-.32V433.3a.32.32,0,0,1,.318-.32h8.142a.32.32,0,0,1,.32.32V445.05a.322.322,0,0,0,.32.32h19.274a.322.322,0,0,0,.32-.32V357.728A.322.322,0,0,0,505.053,357.408ZM425.721,428.9a.318.318,0,0,1-.318.318H413.5a.318.318,0,0,1-.32-.318v-4.059a.32.32,0,0,1,.32-.32h11.9a.32.32,0,0,1,.318.32Zm0-10.506a.318.318,0,0,1-.318.32H413.5a.318.318,0,0,1-.32-.32v-4.064a.318.318,0,0,1,.32-.32h11.9a.317.317,0,0,1,.318.32Zm0-10.5a.32.32,0,0,1-.318.32H413.5a.32.32,0,0,1-.32-.32v-4.066a.32.32,0,0,1,.32-.32h11.9a.32.32,0,0,1,.318.32Zm0-10.506a.318.318,0,0,1-.318.32H413.5a.318.318,0,0,1-.32-.32v-4.057a.318.318,0,0,1,.32-.32h11.9a.318.318,0,0,1,.318.32Zm0-10.5a.32.32,0,0,1-.318.32H413.5a.32.32,0,0,1-.32-.32v-4.066a.317.317,0,0,1,.32-.318h11.9a.317.317,0,0,1,.318.318Zm0-10.5a.318.318,0,0,1-.318.318H413.5a.318.318,0,0,1-.32-.318V372.31a.32.32,0,0,1,.32-.32h11.9a.32.32,0,0,1,.318.32Zm0-10.506a.318.318,0,0,1-.318.32H413.5a.318.318,0,0,1-.32-.32v-4.057a.318.318,0,0,1,.32-.32h11.9a.317.317,0,0,1,.318.32ZM453.944,428.9a.317.317,0,0,1-.32.317h-11.9a.32.32,0,0,1-.32-.317v-4.057a.322.322,0,0,1,.32-.32h11.9a.32.32,0,0,1,.32.32Zm0-10.506a.317.317,0,0,1-.32.32h-11.9a.32.32,0,0,1-.32-.32v-4.061a.32.32,0,0,1,.32-.32h11.9a.317.317,0,0,1,.32.32Zm0-10.5a.32.32,0,0,1-.32.32h-11.9a.322.322,0,0,1-.32-.32v-4.064a.322.322,0,0,1,.32-.32h11.9a.32.32,0,0,1,.32.32Zm0-10.506a.318.318,0,0,1-.32.32h-11.9a.32.32,0,0,1-.32-.32v-4.054a.32.32,0,0,1,.32-.32h11.9a.318.318,0,0,1,.32.32Zm0-10.5a.32.32,0,0,1-.32.32h-11.9a.322.322,0,0,1-.32-.32v-4.064a.32.32,0,0,1,.32-.318h11.9a.318.318,0,0,1,.32.318Zm0-10.5a.317.317,0,0,1-.32.318h-11.9a.32.32,0,0,1-.32-.318V372.31a.322.322,0,0,1,.32-.32h11.9a.32.32,0,0,1,.32.32Zm0-10.506a.317.317,0,0,1-.32.32h-11.9a.32.32,0,0,1-.32-.32v-4.054a.32.32,0,0,1,.32-.32h11.9a.317.317,0,0,1,.32.32ZM473.23,428.9a.317.317,0,0,1-.32.318h-11.9a.32.32,0,0,1-.32-.318v-4.054a.322.322,0,0,1,.32-.32h11.9a.32.32,0,0,1,.32.32Zm0-10.506a.317.317,0,0,1-.32.32h-11.9a.32.32,0,0,1-.32-.32v-4.059a.32.32,0,0,1,.32-.32h11.9a.317.317,0,0,1,.32.32Zm0-10.5a.32.32,0,0,1-.32.32h-11.9a.322.322,0,0,1-.32-.32v-4.061a.322.322,0,0,1,.32-.32h11.9a.32.32,0,0,1,.32.32Zm0-10.506a.318.318,0,0,1-.32.32h-11.9a.32.32,0,0,1-.32-.32v-4.052a.32.32,0,0,1,.32-.32h11.9a.318.318,0,0,1,.32.32Zm0-10.5a.32.32,0,0,1-.32.32h-11.9a.322.322,0,0,1-.32-.32v-4.061a.32.32,0,0,1,.32-.318h11.9a.318.318,0,0,1,.32.318Zm0-10.5a.317.317,0,0,1-.32.318h-11.9a.32.32,0,0,1-.32-.318V372.31a.322.322,0,0,1,.32-.32h11.9a.32.32,0,0,1,.32.32Zm0-10.506a.317.317,0,0,1-.32.32h-11.9a.32.32,0,0,1-.32-.32v-4.052a.32.32,0,0,1,.32-.32h11.9a.317.317,0,0,1,.32.32Zm28.223,63.029a.32.32,0,0,1-.32.318h-11.9a.318.318,0,0,1-.32-.318v-4.052a.32.32,0,0,1,.32-.32h11.907a.322.322,0,0,1,.32.32Zm0-10.506a.32.32,0,0,1-.32.32h-11.9a.318.318,0,0,1-.32-.32v-4.057a.318.318,0,0,1,.32-.32h11.907a.32.32,0,0,1,.32.32Zm0-10.5a.322.322,0,0,1-.32.32h-11.9a.32.32,0,0,1-.32-.32v-4.059a.32.32,0,0,1,.32-.32h11.907a.322.322,0,0,1,.32.32Zm0-10.506a.32.32,0,0,1-.32.32h-11.9a.318.318,0,0,1-.32-.32v-4.049a.318.318,0,0,1,.32-.32h11.907a.32.32,0,0,1,.32.32Zm0-10.5a.322.322,0,0,1-.32.32h-11.9a.32.32,0,0,1-.32-.32v-4.059a.318.318,0,0,1,.32-.318h11.907a.32.32,0,0,1,.32.318Zm0-10.5a.32.32,0,0,1-.318.325H489.229a.318.318,0,0,1-.32-.318V372.31a.32.32,0,0,1,.32-.32h11.907a.322.322,0,0,1,.32.32Zm0-10.507a.32.32,0,0,1-.32.32h-11.9a.318.318,0,0,1-.32-.32v-4.049a.318.318,0,0,1,.32-.32h11.907a.32.32,0,0,1,.32.32Z" transform="translate(-330.53 -279.908)"/><path class="a" d="M381.806,280.107a6.845,6.845,0,0,0-3.974.431,5.855,5.855,0,0,1-4.794-.012,6.687,6.687,0,0,0-5.611.111,3.494,3.494,0,0,1-1.616.4c-2.275,0-4.168-2.291-4.561-5.315a4.362,4.362,0,0,0,1.137-1.225,6.389,6.389,0,0,1,11.407-.04,4.386,4.386,0,0,0,3.779,2.076h.059C379.462,276.536,381.031,277.989,381.806,280.107Z" transform="translate(-293.896 -226.274)"/><path class="a" d="M388.717,243.43l-3.677,2.332,2.232-4.059a3.635,3.635,0,0,0-2.225-.794h-.059a4.308,4.308,0,0,1-.763-.057l-1.242.791.536-.971a4.431,4.431,0,0,1-2.18-1.659l-2.232,1.422,1.405-2.569a6.53,6.53,0,0,0-5-2.526,6.85,6.85,0,0,0-5.72,3.528,4.277,4.277,0,0,1-3.791,2.04h-.126c-2.561,0-4.637,2.9-4.637,6.485s2.076,6.485,4.637,6.485a3.462,3.462,0,0,0,1.616-.405,6.687,6.687,0,0,1,5.611-.109,5.855,5.855,0,0,0,4.772,0,6.684,6.684,0,0,1,5.564.107,3.471,3.471,0,0,0,1.6.4c2.562,0,4.637-2.9,4.637-6.485A8.236,8.236,0,0,0,388.717,243.43Z" transform="translate(-293.889 -199.086)"/><path class="a" d="M862.714,471.428a4.812,4.812,0,0,0-2.782.3,4.093,4.093,0,0,1-3.341,0,4.682,4.682,0,0,0-3.929.078,2.436,2.436,0,0,1-1.13.282c-1.592,0-2.917-1.6-3.192-3.72a3.1,3.1,0,0,0,.8-.858,4.476,4.476,0,0,1,7.99-.028,3.066,3.066,0,0,0,2.644,1.452h.043A3.349,3.349,0,0,1,862.714,471.428Z" transform="translate(-665.569 -374.358)"/><path class="a" d="M867.522,445.748l-2.573,1.633,1.562-2.843a2.546,2.546,0,0,0-1.557-.555h-.04a3.046,3.046,0,0,1-.533-.04l-.874.552.374-.678a3.125,3.125,0,0,1-1.526-1.159l-1.566.986.986-1.794a4.549,4.549,0,0,0-3.5-1.77,4.785,4.785,0,0,0-4,2.471,2.99,2.99,0,0,1-2.647,1.422h-.078c-1.792,0-3.246,2.031-3.246,4.538s1.455,4.54,3.246,4.54a2.436,2.436,0,0,0,1.13-.282,4.673,4.673,0,0,1,3.929-.076,4.116,4.116,0,0,0,3.341,0,4.68,4.68,0,0,1,3.893.076,2.453,2.453,0,0,0,1.118.275c1.794,0,3.246-2.031,3.246-4.54a5.77,5.77,0,0,0-.682-2.756Z" transform="translate(-665.539 -355.313)"/><path class="a" d="M315.62,407.4a4.815,4.815,0,0,1,2.782.3,4.085,4.085,0,0,0,3.339,0,4.682,4.682,0,0,1,3.929.078,2.443,2.443,0,0,0,1.13.282c1.592,0,2.919-1.6,3.194-3.72a3.066,3.066,0,0,1-.8-.858,4.476,4.476,0,0,0-7.995-.038,3.08,3.08,0,0,1-2.649,1.457h-.04A3.333,3.333,0,0,0,315.62,407.4Z" transform="translate(-259.079 -325.493)"/><path class="a" d="M292.95,381.74l2.573,1.625-1.564-2.843a2.549,2.549,0,0,1,1.557-.555h.043a3.082,3.082,0,0,0,.533-.04l.872.552-.374-.678a3.131,3.131,0,0,0,1.528-1.159l1.561.991-.988-1.794a4.572,4.572,0,0,1,3.5-1.77,4.785,4.785,0,0,1,4,2.471,2.988,2.988,0,0,0,2.647,1.422h.085c1.794,0,3.246,2.031,3.246,4.538s-1.452,4.54-3.246,4.54a2.451,2.451,0,0,1-1.13-.282,4.673,4.673,0,0,0-3.929-.076,4.111,4.111,0,0,1-3.339,0,4.685,4.685,0,0,0-3.9.076,2.444,2.444,0,0,1-1.118.275c-1.791,0-3.246-2.031-3.246-4.54A5.771,5.771,0,0,1,292.95,381.74Z" transform="translate(-241.261 -306.47)"/><path class="b" d="M295.68,784.68c3.208,2.038,7.831-.024,11.061,1.983.834.517,1.507,1.277,2.37,1.746a7.66,7.66,0,0,0,3.431.711c9.862.381,19.89-2.37,29.505-.147,2.689.621,5.32,1.63,8.075,1.777,4.76.258,9.322-2.064,14.087-2.192,7.227-.194,14.328,4.642,21.3,2.734,2.294-.628,4.4-1.967,6.765-2.192,2.637-.237,5.173.912,7.736,1.583,9.092,2.37,18.56-1.469,27.96-1.756,6.13-.187,12.2,1.149,18.326,1.457a109.435,109.435,0,0,0,13.07-.391,9.835,9.835,0,0,0,4.784-1.168c1.389-.91,2.242-2.865,1.384-4.287Z" transform="translate(-243.863 -618.152)"/><path class="c" d="M295.68,784.68c3.208,2.038,7.831-.024,11.061,1.983.834.517,1.507,1.277,2.37,1.746a7.66,7.66,0,0,0,3.431.711c9.862.381,19.89-2.37,29.505-.147,2.689.621,5.32,1.63,8.075,1.777,4.76.258,9.322-2.064,14.087-2.192,7.227-.194,14.328,4.642,21.3,2.734,2.294-.628,4.4-1.967,6.765-2.192,2.637-.237,5.173.912,7.736,1.583,9.092,2.37,18.56-1.469,27.96-1.756,6.13-.187,12.2,1.149,18.326,1.457a109.435,109.435,0,0,0,13.07-.391,9.835,9.835,0,0,0,4.784-1.168c1.389-.91,2.242-2.865,1.384-4.287Z" transform="translate(-243.863 -618.152)"/><path class="b" d="M295.68,779.68c3.208,2.038,7.831-.024,11.061,1.983.834.516,1.507,1.277,2.37,1.746a7.655,7.655,0,0,0,3.431.711c9.862.381,19.89-2.37,29.505-.147,2.689.621,5.32,1.63,8.075,1.777,4.76.258,9.322-2.064,14.087-2.192,7.227-.194,14.328,4.642,21.3,2.734,2.294-.628,4.4-1.967,6.765-2.192,2.637-.237,5.173.912,7.736,1.583,9.092,2.37,18.56-1.469,27.96-1.756,6.13-.187,12.2,1.149,18.326,1.457a109.486,109.486,0,0,0,13.07-.391,9.839,9.839,0,0,0,4.784-1.168c1.389-.91,2.242-2.865,1.384-4.287Z" transform="translate(-243.863 -614.337)"/><g class="d" transform="translate(7.669 49.973)"><path class="b" d="M175.733,622.547a5.794,5.794,0,0,1-.765,2.934,6,6,0,0,1,0,5.867,5.389,5.389,0,0,1,.578,1.422,107.6,107.6,0,0,1-7.13-10.663h0a5.686,5.686,0,0,1,.749-2.5,5.794,5.794,0,0,1-.765-2.933,6.033,6.033,0,0,1,.346-2.04,5.069,5.069,0,0,1,.419-.893,3.188,3.188,0,0,1,5.8,0,5.28,5.28,0,0,1,.41.865,6.074,6.074,0,0,1,.355,2.069,6.023,6.023,0,0,0,0,5.876Z" transform="translate(-154.411 -536.37)"/><ellipse class="b" cx="3.666" cy="4.801" rx="3.666" ry="4.801" transform="translate(13.988 69.645)"/><ellipse class="b" cx="3.666" cy="4.801" rx="3.666" ry="4.801" transform="translate(13.988 63.778)"/><path class="e" d="M144.507,332.516a17.482,17.482,0,0,1-3.76,10.859,17.565,17.565,0,0,1-10.426,28.1c-.422.085-.851.152-1.284.2a17.746,17.746,0,0,1-4.028.021q-.668-.071-1.32-.2a17.366,17.366,0,0,1-5.45-1.993,175,175,0,0,1-8.248-19.854,17.485,17.485,0,0,1,3.149-6.267,17.579,17.579,0,0,1-2.843-16.494l13.336,4.476-12.506-6.5a17.638,17.638,0,0,1,2-3.2,17.565,17.565,0,1,1,29.01-19.655l-12.893,9.478,13.98-7.251a17.587,17.587,0,0,1-.336,13.916l-10.426-.078,9.634,1.583a17.635,17.635,0,0,1-1.367,2.009A17.487,17.487,0,0,1,144.507,332.516Z" transform="translate(-109.367 -293.239)"/><path class="c" d="M144.548,479.9a17.569,17.569,0,0,1-14.172,17.235c-.425.086-.854.152-1.287.2a17.746,17.746,0,0,1-4.028.021q-.668-.071-1.32-.2a17.368,17.368,0,0,1-5.45-1.993,175,175,0,0,1-8.26-19.864,17.484,17.484,0,0,1,3.149-6.267,17.494,17.494,0,0,1-3.76-10.869c0-1.971,33.723,7.872,31.368,10.859A17.482,17.482,0,0,1,144.548,479.9Z" transform="translate(-109.407 -418.889)"/></g><g class="d" transform="translate(223.996 68.828)"><path class="b" d="M1083.888,637.65c-.687,2.194-1.422,4.372-2.175,6.5a6.069,6.069,0,0,1-.313-1.945A4.886,4.886,0,0,1,1083.888,637.65Z" transform="translate(-1067.401 -574.895)"/><path class="e" d="M1046.177,397.756a102.015,102.015,0,0,1-2.37,18.245,200.492,200.492,0,0,1-5.011,19.563c-.687,2.194-1.422,4.372-2.175,6.5-.865,2.417-1.777,4.767-2.732,7.016a17.632,17.632,0,0,1-7.8-27.432,17.648,17.648,0,0,1-2.843-16.53l13.336,4.485-12.506-6.511a17.687,17.687,0,0,1,2-3.211,17.629,17.629,0,0,1,6.9-27.072,30.226,30.226,0,0,1,11.552,15.148l-2.31,1.72,2.478-1.287a30.074,30.074,0,0,1,1.443,7.893h-.7l.711.116C1046.177,396.849,1046.177,397.3,1046.177,397.756Z" transform="translate(-1022.321 -372.81)"/><path class="c" d="M1043.895,537.405a200.338,200.338,0,0,1-5.011,19.563c-.687,2.194-1.422,4.372-2.175,6.5-.865,2.417-1.777,4.767-2.732,7.016a17.632,17.632,0,0,1-7.8-27.432,17.559,17.559,0,0,1-3.758-10.881C1022.42,530.986,1034.675,534.09,1043.895,537.405Z" transform="translate(-1022.396 -494.214)"/></g><path class="f" d="M324.821,224.054v-.111a30.072,30.072,0,0,0-1.443-7.893c-.047-.145-.095-.291-.145-.434a30.079,30.079,0,0,0-50.923-10.281,42.51,42.51,0,0,0-2.4-8.4,134.969,134.969,0,0,1-23.844.889,96.2,96.2,0,0,0,15.118,5.49L261,204a97.08,97.08,0,0,1-16.9-6.327l-1.637-.794,1.815.118a135.014,135.014,0,0,0,25.354-.727,42.75,42.75,0,0,0-7.469-11.867c-13.639-1.374-27.171-4.237-39.808-9.912l.291-.647c12.3,5.528,25.482,8.369,38.789,9.767a42.595,42.595,0,0,0-67.7,7.2,58.5,58.5,0,0,0-14.511-32.913,136.628,136.628,0,0,1-22.456,6.8,135.81,135.81,0,0,1-35.1,2.794,96.2,96.2,0,0,0,15.118,5.49l-.185.687A97.08,97.08,0,0,1,119.7,167.34l-1.637-.794,1.815.118a134.876,134.876,0,0,0,58.849-9.324q-1.054-1.154-2.17-2.256c-23.321.474-48.72.237-71.714-8.135A58.653,58.653,0,0,0,77,196.916c0,11.009,3.026,26.148,8.293,41.336a175.647,175.647,0,0,0,8.272,19.9c1.609,3.27,3.317,6.447,5.111,9.49h0a107.715,107.715,0,0,0,7.13,10.663q.7.917,1.41,1.8a65.045,65.045,0,0,0,8.881,9.21h0q.988.825,1.988,1.571a37.867,37.867,0,0,0,5.687,3.554,26.222,26.222,0,0,0,10.734,2.91c.294.012.59.019.884.019v.121H294.622v-.121h.118a8.057,8.057,0,0,0,2.692-.474c5.63-2,10.814-10.018,15.125-20.155.948-2.249,1.867-4.6,2.732-7.016.763-2.133,1.488-4.305,2.175-6.5a200.4,200.4,0,0,0,5.012-19.563,103.123,103.123,0,0,0,2.369-18.245C324.852,224.957,324.852,224.507,324.821,224.054Z" transform="translate(-77 -131.64)"/><path class="g" d="M360.271,726.9l4.535-2.668a10.935,10.935,0,0,0-2.32-2.775l-8.556,2.661,6.706-3.941a10.9,10.9,0,0,0-16.136,9.561c0,6.019,4.879,6.227,10.9,6.227s10.9-.208,10.9-6.227a10.851,10.851,0,0,0-.936-4.424Z" transform="translate(-281.115 -568.015)"/><path class="c" d="M361.4,755.24a8.472,8.472,0,0,0-1.607-1.26,7.483,7.483,0,0,0-2.647-1.292,19.822,19.822,0,0,0-2.606-.076,6.081,6.081,0,0,1-3.983-1.824,12.442,12.442,0,0,0-1.851-1.917,4.069,4.069,0,0,0-2.775-.509,6.853,6.853,0,0,0-.82.168,10.866,10.866,0,0,0-.644,3.7c0,6.018,4.879,6.227,10.9,6.227,2.922,0,5.573-.05,7.53-.787l-.327-.611A8.623,8.623,0,0,0,361.4,755.24Z" transform="translate(-281.092 -590.508)"/><circle class="b" cx="8.471" cy="8.471" r="8.471" transform="translate(121.222 36.195)"/><path class="b" d="M559.62,531.426c.874,6.135-.192,12.39-1.853,18.359a13.639,13.639,0,0,1-1.225,3.23,34.433,34.433,0,0,1-2.071,2.794,24.252,24.252,0,0,0-3.035,6.549,184.716,184.716,0,0,0-5.407,19.269,1.318,1.318,0,0,0,0,.822c.206.474.832.536,1.346.533l6.649-.036c.237-.455-.2-.948-.474-1.384-.948-1.474-.038-3.388.8-4.931a53.026,53.026,0,0,0,4.687-11.848,32.1,32.1,0,0,1,1.564-5.149,51.7,51.7,0,0,1,3.431-5.552,46.489,46.489,0,0,0,3.244-6.855,44.4,44.4,0,0,0,3.211-10.059,40.182,40.182,0,0,0-.071-9.907.626.626,0,0,0-.725-.711l-8.921-.46c-1.839-.095-2.275-.5-2,1.308C558.966,528.749,559.426,530.061,559.62,531.426Z" transform="translate(-434.841 -420.864)"/><path class="c" d="M559.62,531.426c.874,6.135-.192,12.39-1.853,18.359a13.639,13.639,0,0,1-1.225,3.23,34.433,34.433,0,0,1-2.071,2.794,24.252,24.252,0,0,0-3.035,6.549,184.716,184.716,0,0,0-5.407,19.269,1.318,1.318,0,0,0,0,.822c.206.474.832.536,1.346.533l6.649-.036c.237-.455-.2-.948-.474-1.384-.948-1.474-.038-3.388.8-4.931a53.026,53.026,0,0,0,4.687-11.848,32.1,32.1,0,0,1,1.564-5.149,51.7,51.7,0,0,1,3.431-5.552,46.489,46.489,0,0,0,3.244-6.855,44.4,44.4,0,0,0,3.211-10.059,40.182,40.182,0,0,0-.071-9.907.626.626,0,0,0-.725-.711l-8.921-.46c-1.839-.095-2.275-.5-2,1.308C558.966,528.749,559.426,530.061,559.62,531.426Z" transform="translate(-434.841 -420.864)"/><path class="b" d="M600.615,483.859c-1.813,2.607-3.713,5.606-3.111,8.727.457,2.37,2.263,4.206,3.967,5.924,6.81,6.838,13.506,14.435,15.824,23.807.6,2.422.886,4.907,1.4,7.346a81.125,81.125,0,0,0,4.265,12.878l4.445,11.22a6.72,6.72,0,0,0,6.421-4.265,2.811,2.811,0,0,1-1.685-1.083c-1.9-2.623-2.284-6-2.77-9.2-.538-3.535-1.256-7.042-1.976-10.547l-3.185-15.506c-.367-1.789-.735-3.58-1.213-5.343-1.853-6.829-5.365-13.269-5.907-20.331a4.775,4.775,0,0,0-.834-2.948,4.331,4.331,0,0,0-3.05-1.012C608.769,483.245,604.94,482.812,600.615,483.859Z" transform="translate(-474.083 -388.211)"/><path class="h" d="M543.057,756.132a7.079,7.079,0,0,0-1.474-.189,3.061,3.061,0,0,0-2.407,1.315,5.988,5.988,0,0,0-.647,1.422l-.642,1.843a2.051,2.051,0,0,0-.092,1.659,1.758,1.758,0,0,0,.863.666,16.017,16.017,0,0,0,5,.9c1.644.161,3.275.45,4.9.754.559.107,1.116.213,1.682.27a20.044,20.044,0,0,0,3.805-.114l1.306-.126a4.7,4.7,0,0,0,1.284-.237,1.619,1.619,0,0,0,.948-.851,1.537,1.537,0,0,0-1.216-1.91c-.344-.066-.711-.035-1.047-.08a4.947,4.947,0,0,1-1.147-.344,22.878,22.878,0,0,1-4.827-2.353c-.407-.287-.834-.687-.789-1.185a2.413,2.413,0,0,1,.211-.614,2.242,2.242,0,0,0,.019-1.585c-.081-.218-.237-.448-.457-.474-.625-.076-.55.836-.642,1.185-.126.474-.353.517-.8.474C545.606,756.438,544.327,756.374,543.057,756.132Z" transform="translate(-428.498 -595.529)"/><path class="h" d="M718.259,759.807a4.184,4.184,0,0,0,.905,2.547,1.983,1.983,0,0,0,.645.519,2.586,2.586,0,0,0,1.185.187,9.486,9.486,0,0,0,3.291-.666,9.409,9.409,0,0,1,1.137-.429,12.712,12.712,0,0,1,1.479-.213c1.96-.282,3.68-1.438,5.573-2.024a11.736,11.736,0,0,0,1.659-.545,7.608,7.608,0,0,0,1.95-1.524,3.5,3.5,0,0,0,1.279-3.227.614.614,0,0,0-.057-.334.5.5,0,0,0-.213-.168,3.094,3.094,0,0,0-1.9-.031,33.692,33.692,0,0,1-7,.258,1.017,1.017,0,0,1-1.076-.614l-.888-1.422c-.254-.407-.656-.874-1.116-.734a.91.91,0,0,0-.5.948,5.072,5.072,0,0,1,.059,1.147,1.566,1.566,0,0,1-.758.986,4.835,4.835,0,0,1-1.185.455,9.1,9.1,0,0,0-3.841,1.751C718.145,757.357,718.214,758.886,718.259,759.807Z" transform="translate(-566.292 -592.837)"/><path class="i" d="M686.979,357.082a5.491,5.491,0,0,0,1.294-1.408,5.734,5.734,0,0,0,.552-1.945l.372-2.351a7.081,7.081,0,0,1,1.313-3.656c.865-.988,2.587-1.341,3.467-.365a3.042,3.042,0,0,1,.63,1.573,11.455,11.455,0,0,1-2.8,9.478c-1.064,1.166-2.37,2.092-3.5,3.194-.981.948-1.832,2.035-2.737,3.066a37.779,37.779,0,0,1-7.457,6.516,33.459,33.459,0,0,0,0-5.4c-.192-1.265-.711-1.948.514-2.775A94,94,0,0,0,686.979,357.082Z" transform="translate(-535.472 -284.12)"/><path class="i" d="M610.219,305.147a4.335,4.335,0,0,1-1.659,3.277q4.429,1.55,8.736,3.417a3.027,3.027,0,0,1-.749-2.118,10.693,10.693,0,0,1,1.635-5.711,1.386,1.386,0,0,0,.268-.753c-.033-.559-.7-.817-1.242-.948a30.54,30.54,0,0,0-5.668-.822c-.818-.026-1.787-.284-1.6.756A11.436,11.436,0,0,1,610.219,305.147Z" transform="translate(-482.606 -249.525)"/><circle class="i" cx="6.926" cy="6.926" r="6.926" transform="translate(126.397 42.445)"/><path class="j" d="M614.139,334.135a8.376,8.376,0,0,0-.879-1.474,30.669,30.669,0,0,0-4.156-5.1,25.886,25.886,0,0,0-3.945-2.9,8.955,8.955,0,0,0-2.469-1.185,9.664,9.664,0,0,0-1.585-.216l-1.8-.147a1.473,1.473,0,0,0-.474.014,1.021,1.021,0,0,0-.607,1.22,3,3,0,0,0,.8,1.261c.081,3.67-1.552,7.291-1.772,10.957-.386,6.41,3.526,12.371,3.839,18.786a2.024,2.024,0,0,1-.09.86c-.052.133-.13.254-.19.384a3.754,3.754,0,0,0-.211,1.3,6.62,6.62,0,0,1-1.95,4.175,2.9,2.9,0,0,0,1.1.839,19.824,19.824,0,0,0,2.462.588,19.114,19.114,0,0,0,6.419,1.1,5.666,5.666,0,0,0,.5-1.865c.308-.192.663.218.711.578s-.021.78.237,1.04a.976.976,0,0,0,.9.18,39.808,39.808,0,0,0,3.91-.917,7.294,7.294,0,0,1,3.964-.014,1.061,1.061,0,0,0-.062-1.161,5.191,5.191,0,0,1-.623-1.064,2.389,2.389,0,0,1-.076-.7c0-2.026.417-4.073.021-6.061-.116-.583-.3-1.152-.419-1.737a14.976,14.976,0,0,1-.171-3.464c.031-1.159-.109-2.412-.133-3.587a11.492,11.492,0,0,0-.095-1.453c-.081-.5-.237-1-.28-1.507-.128-1.294.393-2.578.315-3.877C617.2,337.023,614.907,335.952,614.139,334.135Z" transform="translate(-473.958 -266.056)"/><path class="i" d="M572.525,365.536a76.271,76.271,0,0,0-3.317,13.857l-1.9,11.009a53.256,53.256,0,0,0-1.057,9.4,10.061,10.061,0,0,1-.175,2.644,14.289,14.289,0,0,1-1.628,3.08,10.136,10.136,0,0,0-1.09,6.855c.194.983.725,2.1,1.723,2.213a2.387,2.387,0,0,0,2.007-1.234,15.9,15.9,0,0,0,2.133-5.239,118.494,118.494,0,0,0,3.287-18.267,17.777,17.777,0,0,1,.329-2.322,16.494,16.494,0,0,1,.8-2.313q1.088-2.7,2.178-5.393a86.155,86.155,0,0,1,5.661-12.17c-2.275-.654-4.642-1.422-6.917-2.069A6.246,6.246,0,0,0,572.525,365.536Z" transform="translate(-447.976 -298.386)"/><path class="j" d="M600.854,363.06a26.026,26.026,0,0,0-4.865-.277,1.05,1.05,0,0,1-.654-.171c-.329-.282-.19-.81-.024-1.211l.787-1.9a2.76,2.76,0,0,1,.63-1.047,2.673,2.673,0,0,1,1.5-.507,13.544,13.544,0,0,1,5.18.2,6.2,6.2,0,0,1,4,3.1,2.109,2.109,0,0,1,.043,2.073c-.616.884-2,1.872-3.028,1.389A15.782,15.782,0,0,0,600.854,363.06Z" transform="translate(-472.362 -292.529)"/><path class="b" d="M584.832,229.7a7,7,0,0,0-3.862,1.114,8.471,8.471,0,0,0-8.317-1.948,4.841,4.841,0,1,0-5.592,5.6,8.471,8.471,0,0,0,16.26,4.76,7.586,7.586,0,0,0,1.519.154c3.341,0,6.052-2.168,6.052-4.841S588.169,229.7,584.832,229.7Z" transform="translate(-447.874 -191.087)"/><path class="c" d="M651.628,269.82a7.369,7.369,0,0,1-1.519-.154A8.428,8.428,0,0,1,649,272.1a7.6,7.6,0,0,0,1.422.137c3.123,0,5.687-1.9,6.016-4.322A6.675,6.675,0,0,1,651.628,269.82Z" transform="translate(-513.463 -223.946)"/><path class="c" d="M576.364,248.021a8.483,8.483,0,0,1-8.1-10.966,4.841,4.841,0,0,1-4-4.767,4.767,4.767,0,0,1,.078-.867,4.841,4.841,0,0,0,2.716,8.056,8.471,8.471,0,1,0,16.182,5.019A8.454,8.454,0,0,1,576.364,248.021Z" transform="translate(-447.882 -196.095)"/><rect class="k" width="0.159" height="1.313" rx="0.079" transform="matrix(0.814, 0.581, -0.581, 0.814, 159.3, 66.051)"/><rect class="k" width="0.09" height="0.431" rx="0.045" transform="matrix(0.814, 0.581, -0.581, 0.814, 155.591, 62.139)"/><rect class="k" width="0.1" height="0.751" rx="0.05" transform="matrix(0.814, 0.581, -0.581, 0.814, 155.126, 62.784)"/><rect class="k" width="0.095" height="0.758" rx="0.047" transform="matrix(0.814, 0.581, -0.581, 0.814, 154.54, 63.611)"/><rect class="k" width="5.327" height="10.826" rx="2.52" transform="matrix(0.814, 0.581, -0.581, 0.814, 156.681, 61.449)"/><rect class="c" width="5.327" height="10.826" rx="2.52" transform="matrix(0.814, 0.581, -0.581, 0.814, 156.681, 61.449)"/><rect class="k" width="5.327" height="10.826" rx="2.52" transform="matrix(0.814, 0.581, -0.581, 0.814, 156.462, 61.007)"/><path class="l" d="M722.512,344.594l-.5-.355-.043.059a.346.346,0,0,1-.474.083l-1.583-1.13a.348.348,0,0,1-.081-.486l.043-.059-.474-.332a.422.422,0,0,0-.59.1l-5.469,7.665a.424.424,0,0,0,.1.59l3.114,2.22a.422.422,0,0,0,.59-.1l5.469-7.663a.422.422,0,0,0-.1-.59Z" transform="translate(-562.503 -280.697)"/><rect class="m" width="0.744" height="0.152" rx="0.076" transform="matrix(0.814, 0.581, -0.581, 0.814, 158.022, 62.521)"/><circle class="m" cx="0.085" cy="0.085" r="0.085" transform="translate(158.649 63.051)"/></g></svg>