<svg xmlns="http://www.w3.org/2000/svg" width="174.03" height="185.024" viewBox="0 0 174.03 185.024"><defs><style>.a{fill:#57b894;}.b{opacity:0.1;}.c{fill:#ffc1c7;}.d{fill:#f2f2f2;}.e{fill:#3f3d56;}.f{fill:#ffd063;}.g{fill:#2f2e41;}.h,.l{fill:#6c63ff;}.i{fill:#192534;}.j{fill:#ffb663;}.k{fill:#3c354c;}.k,.l{opacity:0.3;}</style></defs><g transform="matrix(0.995, -0.105, 0.105, 0.995, 0, 8.987)"><path class="a" d="M554.554,406.321a4.815,4.815,0,0,0-.9-2.948l-.408,1.607v-1.93a.979.979,0,0,0-.6-.141c-1,.092-1.776,1.776-1.73,3.76s.9,3.519,1.9,3.427S554.6,408.312,554.554,406.321Z" transform="translate(-478.337 -323.476)"/><path class="b" d="M554.346,412.987c-.42.092-.828.351-1.248.4a1.087,1.087,0,0,1-1.146-.8c-.144-.349-.215-.789-.336-1.171a2.381,2.381,0,0,0-.459-.851,6.629,6.629,0,0,0-.195,1.794c.046,1.984.9,3.516,1.9,3.424.841-.077,1.52-1.281,1.689-2.835A1.8,1.8,0,0,0,554.346,412.987Z" transform="translate(-478.372 -329.176)"/><path class="a" d="M878.379,360.152a4.836,4.836,0,0,0-2.686-1.512l.8,1.435-1.32-1.407a.992.992,0,0,0-.531.308c-.664.769-.064,2.512,1.338,3.919s3.076,1.933,3.737,1.174S879.773,361.552,878.379,360.152Z" transform="translate(-718.895 -290.556)"/><path class="b" d="M880.318,367.434c-.241.354-.359.823-.628,1.148a1.092,1.092,0,0,1-1.379.215c-.346-.154-.7-.425-1.051-.618a2.38,2.38,0,0,0-.92-.3,6.679,6.679,0,0,0,1.1,1.438c1.4,1.407,3.076,1.933,3.737,1.174.554-.636.221-1.971-.728-3.217A1.362,1.362,0,0,0,880.318,367.434Z" transform="translate(-720.357 -296.974)"/><path class="c" d="M593.035,351.713l-4.413-2.563s-10.667-1.471-9.2-6.62,8.83,0,8.83,0l4.78,3.288Z" transform="translate(-499.439 -276.873)"/><path class="b" d="M593.035,351.713l-4.413-2.563s-10.667-1.471-9.2-6.62,8.83,0,8.83,0l4.78,3.288Z" transform="translate(-499.439 -276.873)"/><path class="c" d="M650.206,248.959s-10.665,7.725-10.665,5.149c0-1.538-1.861-6.287-3.347-9.822-.984-2.343-1.794-4.155-1.794-4.155l11.021-2.942a12.869,12.869,0,0,0,.123,5.382A10.375,10.375,0,0,0,650.206,248.959Z" transform="translate(-540.427 -200.234)"/><path class="c" d="M557.24,538.94s-8.458,18.759-5.518,25.746c0,0-9.193,27.955-12.136,29.057s7.356,2.942,7.356,2.942S559.073,580.5,559.8,567.628s13.981-26.109,13.981-26.109Z" transform="translate(-469.52 -424.644)"/><path class="c" d="M686,554.788s4.78,15.45,11.034,19.863c0,0,12.874,21.332,11.021,27.952,0,0,7.356,1.1,7.725,0,0,0-3.311-23.172-11.4-32.366S699.984,550,699.984,550Z" transform="translate(-578.802 -432.87)"/><path class="d" d="M490.073,748.755s-4.413-3.678-7.722-.736-9.2,2.207-13.61.736-4.044,2.207,6.254,6.987,16.183,5.895,16.183,5.895a64.179,64.179,0,0,0,1.471-7.356,18.924,18.924,0,0,1,.915-4.221Z" transform="translate(-415.236 -579.288)"/><path class="d" d="M736.128,750.34s-4.413-2.563-5.149,2.207-11.4,7.725-11.4,7.725-5.149,4.78,10.667,3.3,14.712-4.414,14.712-4.414l-5.008-9.519Z" transform="translate(-603.177 -581.342)"/><path class="e" d="M609.7,465.066s-11.4,16.183-6.989,18.021,4.047-2.942,8.458,2.207,15.816,2.563,17.288,1.471,5.149-5.895,8.091-5.516-4.788-18.759-4.788-18.759Z" transform="translate(-516.106 -367.789)"/><path class="b" d="M644.55,240.986c-1.574,1.469-2.686,3.96-5.008,3.96a8.768,8.768,0,0,1-3.347-.659c-.984-2.343-1.794-4.155-1.794-4.155l11.021-2.942C645.062,239.3,644.173,239.489,644.55,240.986Z" transform="translate(-540.427 -200.234)"/><circle class="c" cx="8.827" cy="8.827" r="8.827" transform="translate(90.288 26.289)"/><path class="d" d="M636.837,278.81s-3.814,3.87-5.585,4.142-8.4,11.672-6.554,20.868-2.207,28.321-.367,29.424S655.6,329.2,655.6,329.2Z" transform="translate(-532.573 -231.186)"/><path class="f" d="M647.392,271.154s-6.62-2.207-8.827,9.563-5.149,1.84-5.149,16.916-1.1,20.6.736,33.471,3.309,12.874,1.1,17.288,23.539,3.311,29.793-5.149-1.84-40.091-5.149-44.873S656.586,278.876,654,275.2a9.871,9.871,0,0,0-6.61-4.044Z" transform="translate(-539.45 -225.37)"/><path class="g" d="M648.506,346.968l-3.258-4.075-10.4-49.625,6.989-13.046a7.74,7.74,0,0,1,5.941-4.037,7.592,7.592,0,0,1,6.664,2.563c10.116,11.518,15.194,47.234,15.4,48.749l.021.144-1.025,2.668-5.382,12.064Zm-2.232-4.557,2.625,3.281,13.748-4.239,5.167-11.58.92-2.376c-.364-2.507-5.534-37.12-15.122-48.034a6.623,6.623,0,0,0-10.8,1.266l-6.8,12.695Z" transform="translate(-540.761 -229.192)"/><path class="h" d="M573.072,331.126h0l-9.557-8.5a.577.577,0,0,1-.095-.748l.118-.179h0a.513.513,0,0,1,.787-.092l8.714,8.074a1,1,0,0,1,.033,1.448Z" transform="translate(-487.567 -262.906)"/><path class="i" d="M573.072,331.809h0l-9.557-8.5a.577.577,0,0,1-.095-.748l.118-.179,9.511,8.53a.618.618,0,0,1,.023.9Z" transform="translate(-487.567 -263.589)"/><path class="c" d="M642.635,341.374s-13.61-1.1-16.183-5.895-9.2-2.207-7.356,0,1.471,7.356,6.62,7.725,18.021,2.953,18.021,2.953Z" transform="translate(-528.808 -271.316)"/><path class="g" d="M700.913,476.84a13.248,13.248,0,0,0-11.4,10.3c-2.207,9.563-12.136,4.783-12.136,4.783s-1.1,25.01,15.078,18.759,19.863-18.023,19.863-19.494S701.282,480.887,700.913,476.84Z" transform="translate(-572.374 -378.461)"/><path class="b" d="M678.11,493.759s9.922,4.783,12.136-4.78a13.219,13.219,0,0,1,11.336-10.293,4.923,4.923,0,0,1-.669-1.845,13.248,13.248,0,0,0-11.4,10.3c-2.207,9.563-12.136,4.783-12.136,4.783s-.359,8.163,2.35,14A38.3,38.3,0,0,1,678.11,493.759Z" transform="translate(-572.375 -378.461)"/><path class="b" d="M782.8,497.614a3.087,3.087,0,0,0,.079-.554c0-1.258-8.076-7.9-10.639-12.331C772.783,488.149,780.288,494.672,782.8,497.614Z" transform="translate(-642.938 -384.329)"/><path class="g" d="M607.846,159.139c-.513,1.61,1.146,3.237,2.819,3.406s3.3-.633,4.829-1.351,3.245-1.389,4.883-.953c1.794.474,2.989,2.143,3.786,3.809a19,19,0,0,1,1.51,4.583c.328,1.7.479,3.563,1.645,4.844s3.1,1.628,4.87,1.62a20.83,20.83,0,0,1,5.262.179c3.383.882,5.477,4.252,6.684,7.525s1.933,6.838,4.119,9.563a18.611,18.611,0,0,0,7.143,4.916,13.534,13.534,0,0,0,4.2,1.3,5.257,5.257,0,0,0,4.1-1.207c1.2-1.123,1.581-2.835,1.907-4.439a19.508,19.508,0,0,0,.556-7.064c-.513-3.076-2.489-5.78-2.942-8.868-.441-3,.6-6.036.492-9.071A12.466,12.466,0,0,0,654.89,156.7c-1.794-.513-3.678-.6-5.4-1.282-2.245-.895-3.975-2.694-5.81-4.265a35.341,35.341,0,0,0-15.253-7.62c-3.778-.838-8.248-.851-10.918,1.94-1.084,1.135-1.794,2.671-3.178,3.429a14.141,14.141,0,0,1-2.289.8,7.682,7.682,0,0,0-4.478,9.7" transform="translate(-520.126 -130.215)"/><path class="b" d="M661.919,218.545a13.535,13.535,0,0,1-4.2-1.3,18.629,18.629,0,0,1-7.143-4.916c-2.186-2.724-2.914-6.287-4.119-9.563s-3.3-6.643-6.684-7.525a20.379,20.379,0,0,0-5.262-.179c-1.761.008-3.678-.318-4.87-1.62s-1.317-3.147-1.645-4.844a18.963,18.963,0,0,0-1.51-4.583c-.8-1.666-2-3.332-3.786-3.809-1.638-.436-3.35.236-4.883.953s-3.142,1.52-4.829,1.351-3.332-1.794-2.819-3.406l-.256.256a7.1,7.1,0,0,1-.174-4.529,7.707,7.707,0,0,0-2.035,8.2l.256-.256c-.513,1.61,1.146,3.237,2.819,3.406s3.3-.633,4.829-1.351,3.245-1.389,4.883-.953c1.794.474,2.988,2.143,3.786,3.809a19,19,0,0,1,1.51,4.583c.328,1.7.479,3.563,1.645,4.844s3.1,1.628,4.87,1.62a20.833,20.833,0,0,1,5.262.179c3.383.882,5.477,4.252,6.684,7.525s1.933,6.838,4.119,9.563a18.61,18.61,0,0,0,7.143,4.916,13.537,13.537,0,0,0,4.2,1.3,5.257,5.257,0,0,0,4.1-1.207,6.412,6.412,0,0,0,1.646-3.25A5.608,5.608,0,0,1,661.919,218.545Z" transform="translate(-520.23 -153.857)"/><path class="j" d="M674.15,283.2s-1.1,8.091,2.942,9.932,6.987,8.081,6.987,8.081l-3.309.736s-1.1,5.149,1.838,6.62,11.034,0,11.034,0,3.681-1.84.736-7.725-11.4-18.746-11.4-18.746S678.564,277.318,674.15,283.2Z" transform="translate(-569.886 -232.27)"/><ellipse class="c" cx="1.771" cy="2.655" rx="1.771" ry="2.655" transform="translate(103.569 32.586)"/><circle class="d" cx="0.884" cy="0.884" r="0.884" transform="translate(104.456 34.652)"/><ellipse class="d" cx="1.033" cy="0.443" rx="1.033" ry="0.443" transform="translate(103.742 37.588) rotate(-63.3)"/><path class="a" d="M810.554,119.321a4.845,4.845,0,0,0-.9-2.947l-.408,1.607v-1.93a.979.979,0,0,0-.6-.141c-1,.092-1.776,1.776-1.73,3.76s.9,3.519,1.9,3.427S810.6,121.312,810.554,119.321Z" transform="translate(-668.724 -110.035)"/><path class="b" d="M810.346,125.987c-.42.092-.828.351-1.248.4a1.087,1.087,0,0,1-1.146-.8c-.143-.349-.215-.789-.336-1.171a2.379,2.379,0,0,0-.459-.851,6.631,6.631,0,0,0-.195,1.794c.046,1.984.9,3.516,1.9,3.424.841-.077,1.52-1.282,1.689-2.835A1.787,1.787,0,0,0,810.346,125.987Z" transform="translate(-668.759 -115.735)"/><path class="a" d="M881.316,526.2a4.812,4.812,0,0,0,2.373-1.968l-1.627.236,1.794-.728a.992.992,0,0,0-.1-.6c-.469-.889-2.322-.959-4.137-.154s-2.906,2.176-2.437,3.076S879.5,527.006,881.316,526.2Z" transform="translate(-720.904 -412.359)"/><path class="b" d="M880.315,526.468a11.744,11.744,0,0,1-.848-1,1.087,1.087,0,0,1,.295-1.364c.256-.256.646-.513.951-.769a2.344,2.344,0,0,0,.613-.748,6.69,6.69,0,0,0-1.733.513c-1.815.8-2.906,2.176-2.437,3.076.395.746,1.763.915,3.265.474A1.8,1.8,0,0,0,880.315,526.468Z" transform="translate(-720.882 -412.485)"/><path class="a" d="M496.316,572.2a4.812,4.812,0,0,0,2.373-1.968l-1.628.236,1.794-.728a.992.992,0,0,0-.1-.6c-.469-.889-2.322-.959-4.137-.154s-2.906,2.176-2.437,3.076S494.5,573.006,496.316,572.2Z" transform="translate(-434.581 -446.569)"/><path class="b" d="M495.315,572.468a11.728,11.728,0,0,1-.848-1,1.087,1.087,0,0,1,.295-1.363c.256-.256.646-.513.951-.769a2.342,2.342,0,0,0,.613-.748,6.694,6.694,0,0,0-1.733.513c-1.815.8-2.906,2.176-2.437,3.076.395.746,1.763.915,3.265.474A1.8,1.8,0,0,0,495.315,572.468Z" transform="translate(-434.558 -446.695)"/><rect class="k" width="32.55" height="3.076" transform="translate(16.147 9.739)"/><path class="b" d="M331.185,143.177l-6.608-11.5H267.75V94h74.84v37.676H331.185ZM268.006,131.42h56.72l6.2,10.8v-10.8h11.405V94.256H268.006Z" transform="translate(-267.75 -93.744)"/><path class="d" d="M331.185,142.177l-6.608-11.5H267.75V93h74.84v37.676H331.185ZM268.006,130.42h56.72l6.2,10.8v-10.8h11.405V93.256H268.006Z" transform="translate(-267.75 -93)"/><circle class="k" cx="4.229" cy="4.229" r="4.229" transform="translate(4.229 7.048)"/><circle class="l" cx="1.538" cy="1.538" r="1.538" transform="translate(59.847 27.296)"/><circle class="l" cx="1.538" cy="1.538" r="1.538" transform="translate(63.691 27.296)"/><circle class="l" cx="1.538" cy="1.538" r="1.538" transform="translate(67.536 27.296)"/></g></svg>